<?xml version="1.0" encoding="iso-8859-1"?>
<!-- Uploaded to: SVG Repo, www.svgrepo.com, Generator: SVG Repo Mixer Tools -->
<svg height="800px" width="800px" version="1.1" id="Layer_1" xmlns="http://www.w3.org/2000/svg" xmlns:xlink="http://www.w3.org/1999/xlink" 
	 viewBox="0 0 495 495" xml:space="preserve">
<g>
	<path style="fill:#6D2C93;" d="M206.78,341.58v-47.04l-81.44,47.04V153.42l81.44,47.04v-47.04l40.72,23.52V0
		C110.81,0,0,110.81,0,247.5S110.81,495,247.5,495V318.06L206.78,341.58z"/>
	<path style="fill:#3D1952;" d="M247.5,0v176.94l122.16,70.56L247.5,318.06V495C384.19,495,495,384.19,495,247.5S384.19,0,247.5,0z"
		/>
	<polygon style="fill:#9CDD05;" points="125.34,247.5 125.34,341.58 206.78,294.54 206.78,341.58 247.5,318.06 369.66,247.5 	"/>
	<polygon style="fill:#B2FA09;" points="206.78,200.46 125.34,153.42 125.34,247.5 369.66,247.5 247.5,176.94 206.78,153.42 	"/>
</g>
</svg>